%TF.GenerationSoftware,KiCad,Pcbnew,10.0.3*%
%TF.CreationDate,2026-07-20T17:41:17-06:00*%
%TF.ProjectId,untitled,756e7469-746c-4656-942e-6b696361645f,rev?*%
%TF.SameCoordinates,Original*%
%TF.FileFunction,Legend,Top*%
%TF.FilePolarity,Positive*%
%FSLAX46Y46*%
G04 Gerber Fmt 4.6, Leading zero omitted, Abs format (unit mm)*
G04 Created by KiCad (PCBNEW 10.0.3) date 2026-07-20 17:41:17*
%MOMM*%
%LPD*%
G01*
G04 APERTURE LIST*
%ADD10C,0.100000*%
%ADD11C,0.300000*%
%ADD12C,0.150000*%
%ADD13C,0.120000*%
G04 APERTURE END LIST*
D10*
X149059195Y-142158996D02*
G75*
G02*
X154930903Y-141551365I3157493J-1837942D01*
G01*
X149025588Y-142191993D02*
G75*
G02*
X154816687Y-143066938I2571100J-2584945D01*
G01*
X149060135Y-142203962D02*
G75*
G02*
X154636688Y-144106938I2016553J-3212976D01*
G01*
X154930449Y-143974540D02*
X157330000Y-141700000D01*
X157460643Y-145142402D01*
X155490643Y-142092402D01*
X158540643Y-143402402D01*
X154930449Y-143974540D01*
G36*
X157375617Y-142902014D02*
G01*
X158540643Y-143402402D01*
X157401459Y-143582938D01*
X157460643Y-145142402D01*
X156541417Y-143719236D01*
X154930449Y-143974540D01*
X156031933Y-142930440D01*
X155490643Y-142092402D01*
X156471562Y-142513714D01*
X157330000Y-141700000D01*
X157375617Y-142902014D01*
G37*
D11*
X146048796Y-146884400D02*
X146477368Y-147027257D01*
X146477368Y-147027257D02*
X147191653Y-147027257D01*
X147191653Y-147027257D02*
X147477368Y-146884400D01*
X147477368Y-146884400D02*
X147620225Y-146741542D01*
X147620225Y-146741542D02*
X147763082Y-146455828D01*
X147763082Y-146455828D02*
X147763082Y-146170114D01*
X147763082Y-146170114D02*
X147620225Y-145884400D01*
X147620225Y-145884400D02*
X147477368Y-145741542D01*
X147477368Y-145741542D02*
X147191653Y-145598685D01*
X147191653Y-145598685D02*
X146620225Y-145455828D01*
X146620225Y-145455828D02*
X146334510Y-145312971D01*
X146334510Y-145312971D02*
X146191653Y-145170114D01*
X146191653Y-145170114D02*
X146048796Y-144884400D01*
X146048796Y-144884400D02*
X146048796Y-144598685D01*
X146048796Y-144598685D02*
X146191653Y-144312971D01*
X146191653Y-144312971D02*
X146334510Y-144170114D01*
X146334510Y-144170114D02*
X146620225Y-144027257D01*
X146620225Y-144027257D02*
X147334510Y-144027257D01*
X147334510Y-144027257D02*
X147763082Y-144170114D01*
X148620225Y-145027257D02*
X149763082Y-145027257D01*
X149048796Y-144027257D02*
X149048796Y-146598685D01*
X149048796Y-146598685D02*
X149191653Y-146884400D01*
X149191653Y-146884400D02*
X149477368Y-147027257D01*
X149477368Y-147027257D02*
X149763082Y-147027257D01*
X152048797Y-147027257D02*
X152048797Y-145455828D01*
X152048797Y-145455828D02*
X151905939Y-145170114D01*
X151905939Y-145170114D02*
X151620225Y-145027257D01*
X151620225Y-145027257D02*
X151048797Y-145027257D01*
X151048797Y-145027257D02*
X150763082Y-145170114D01*
X152048797Y-146884400D02*
X151763082Y-147027257D01*
X151763082Y-147027257D02*
X151048797Y-147027257D01*
X151048797Y-147027257D02*
X150763082Y-146884400D01*
X150763082Y-146884400D02*
X150620225Y-146598685D01*
X150620225Y-146598685D02*
X150620225Y-146312971D01*
X150620225Y-146312971D02*
X150763082Y-146027257D01*
X150763082Y-146027257D02*
X151048797Y-145884400D01*
X151048797Y-145884400D02*
X151763082Y-145884400D01*
X151763082Y-145884400D02*
X152048797Y-145741542D01*
X153477368Y-147027257D02*
X153477368Y-145027257D01*
X153477368Y-145598685D02*
X153620225Y-145312971D01*
X153620225Y-145312971D02*
X153763083Y-145170114D01*
X153763083Y-145170114D02*
X154048797Y-145027257D01*
X154048797Y-145027257D02*
X154334511Y-145027257D01*
X155334511Y-145027257D02*
X155334511Y-148027257D01*
X155334511Y-145170114D02*
X155620226Y-145027257D01*
X155620226Y-145027257D02*
X156191654Y-145027257D01*
X156191654Y-145027257D02*
X156477368Y-145170114D01*
X156477368Y-145170114D02*
X156620226Y-145312971D01*
X156620226Y-145312971D02*
X156763083Y-145598685D01*
X156763083Y-145598685D02*
X156763083Y-146455828D01*
X156763083Y-146455828D02*
X156620226Y-146741542D01*
X156620226Y-146741542D02*
X156477368Y-146884400D01*
X156477368Y-146884400D02*
X156191654Y-147027257D01*
X156191654Y-147027257D02*
X155620226Y-147027257D01*
X155620226Y-147027257D02*
X155334511Y-146884400D01*
X159334512Y-147027257D02*
X159334512Y-145455828D01*
X159334512Y-145455828D02*
X159191654Y-145170114D01*
X159191654Y-145170114D02*
X158905940Y-145027257D01*
X158905940Y-145027257D02*
X158334512Y-145027257D01*
X158334512Y-145027257D02*
X158048797Y-145170114D01*
X159334512Y-146884400D02*
X159048797Y-147027257D01*
X159048797Y-147027257D02*
X158334512Y-147027257D01*
X158334512Y-147027257D02*
X158048797Y-146884400D01*
X158048797Y-146884400D02*
X157905940Y-146598685D01*
X157905940Y-146598685D02*
X157905940Y-146312971D01*
X157905940Y-146312971D02*
X158048797Y-146027257D01*
X158048797Y-146027257D02*
X158334512Y-145884400D01*
X158334512Y-145884400D02*
X159048797Y-145884400D01*
X159048797Y-145884400D02*
X159334512Y-145741542D01*
X162048798Y-147027257D02*
X162048798Y-144027257D01*
X162048798Y-146884400D02*
X161763083Y-147027257D01*
X161763083Y-147027257D02*
X161191655Y-147027257D01*
X161191655Y-147027257D02*
X160905940Y-146884400D01*
X160905940Y-146884400D02*
X160763083Y-146741542D01*
X160763083Y-146741542D02*
X160620226Y-146455828D01*
X160620226Y-146455828D02*
X160620226Y-145598685D01*
X160620226Y-145598685D02*
X160763083Y-145312971D01*
X160763083Y-145312971D02*
X160905940Y-145170114D01*
X160905940Y-145170114D02*
X161191655Y-145027257D01*
X161191655Y-145027257D02*
X161763083Y-145027257D01*
X161763083Y-145027257D02*
X162048798Y-145170114D01*
D12*
X153211670Y-97578200D02*
X153354520Y-97625820D01*
X153354520Y-97625820D02*
X153592620Y-97625820D01*
X153592620Y-97625820D02*
X153687860Y-97578200D01*
X153687860Y-97578200D02*
X153735480Y-97530580D01*
X153735480Y-97530580D02*
X153783100Y-97435340D01*
X153783100Y-97435340D02*
X153783100Y-97340100D01*
X153783100Y-97340100D02*
X153735480Y-97244870D01*
X153735480Y-97244870D02*
X153687860Y-97197250D01*
X153687860Y-97197250D02*
X153592620Y-97149630D01*
X153592620Y-97149630D02*
X153402140Y-97102010D01*
X153402140Y-97102010D02*
X153306910Y-97054390D01*
X153306910Y-97054390D02*
X153259290Y-97006770D01*
X153259290Y-97006770D02*
X153211670Y-96911530D01*
X153211670Y-96911530D02*
X153211670Y-96816300D01*
X153211670Y-96816300D02*
X153259290Y-96721060D01*
X153259290Y-96721060D02*
X153306910Y-96673440D01*
X153306910Y-96673440D02*
X153402140Y-96625820D01*
X153402140Y-96625820D02*
X153640240Y-96625820D01*
X153640240Y-96625820D02*
X153783100Y-96673440D01*
X154116430Y-96625820D02*
X154354520Y-97625820D01*
X154354520Y-97625820D02*
X154545000Y-96911530D01*
X154545000Y-96911530D02*
X154735480Y-97625820D01*
X154735480Y-97625820D02*
X154973570Y-96625820D01*
X155830710Y-96625820D02*
X155354520Y-96625820D01*
X155354520Y-96625820D02*
X155306910Y-97102010D01*
X155306910Y-97102010D02*
X155354520Y-97054390D01*
X155354520Y-97054390D02*
X155449760Y-97006770D01*
X155449760Y-97006770D02*
X155687860Y-97006770D01*
X155687860Y-97006770D02*
X155783100Y-97054390D01*
X155783100Y-97054390D02*
X155830710Y-97102010D01*
X155830710Y-97102010D02*
X155878330Y-97197250D01*
X155878330Y-97197250D02*
X155878330Y-97435340D01*
X155878330Y-97435340D02*
X155830710Y-97530580D01*
X155830710Y-97530580D02*
X155783100Y-97578200D01*
X155783100Y-97578200D02*
X155687860Y-97625820D01*
X155687860Y-97625820D02*
X155449760Y-97625820D01*
X155449760Y-97625820D02*
X155354520Y-97578200D01*
X155354520Y-97578200D02*
X155306910Y-97530580D01*
X132757170Y-116533200D02*
X132900020Y-116580820D01*
X132900020Y-116580820D02*
X133138120Y-116580820D01*
X133138120Y-116580820D02*
X133233360Y-116533200D01*
X133233360Y-116533200D02*
X133280980Y-116485580D01*
X133280980Y-116485580D02*
X133328600Y-116390340D01*
X133328600Y-116390340D02*
X133328600Y-116295100D01*
X133328600Y-116295100D02*
X133280980Y-116199870D01*
X133280980Y-116199870D02*
X133233360Y-116152250D01*
X133233360Y-116152250D02*
X133138120Y-116104630D01*
X133138120Y-116104630D02*
X132947640Y-116057010D01*
X132947640Y-116057010D02*
X132852410Y-116009390D01*
X132852410Y-116009390D02*
X132804790Y-115961770D01*
X132804790Y-115961770D02*
X132757170Y-115866530D01*
X132757170Y-115866530D02*
X132757170Y-115771300D01*
X132757170Y-115771300D02*
X132804790Y-115676060D01*
X132804790Y-115676060D02*
X132852410Y-115628440D01*
X132852410Y-115628440D02*
X132947640Y-115580820D01*
X132947640Y-115580820D02*
X133185740Y-115580820D01*
X133185740Y-115580820D02*
X133328600Y-115628440D01*
X133661930Y-115580820D02*
X133900020Y-116580820D01*
X133900020Y-116580820D02*
X134090500Y-115866530D01*
X134090500Y-115866530D02*
X134280980Y-116580820D01*
X134280980Y-116580820D02*
X134519070Y-115580820D01*
X134804790Y-115580820D02*
X135423830Y-115580820D01*
X135423830Y-115580820D02*
X135090500Y-115961770D01*
X135090500Y-115961770D02*
X135233360Y-115961770D01*
X135233360Y-115961770D02*
X135328600Y-116009390D01*
X135328600Y-116009390D02*
X135376210Y-116057010D01*
X135376210Y-116057010D02*
X135423830Y-116152250D01*
X135423830Y-116152250D02*
X135423830Y-116390340D01*
X135423830Y-116390340D02*
X135376210Y-116485580D01*
X135376210Y-116485580D02*
X135328600Y-116533200D01*
X135328600Y-116533200D02*
X135233360Y-116580820D01*
X135233360Y-116580820D02*
X134947640Y-116580820D01*
X134947640Y-116580820D02*
X134852410Y-116533200D01*
X134852410Y-116533200D02*
X134804790Y-116485580D01*
X132757170Y-97392690D02*
X132900020Y-97440300D01*
X132900020Y-97440300D02*
X133138120Y-97440300D01*
X133138120Y-97440300D02*
X133233360Y-97392690D01*
X133233360Y-97392690D02*
X133280980Y-97345070D01*
X133280980Y-97345070D02*
X133328600Y-97249830D01*
X133328600Y-97249830D02*
X133328600Y-97154590D01*
X133328600Y-97154590D02*
X133280980Y-97059350D01*
X133280980Y-97059350D02*
X133233360Y-97011730D01*
X133233360Y-97011730D02*
X133138120Y-96964110D01*
X133138120Y-96964110D02*
X132947640Y-96916490D01*
X132947640Y-96916490D02*
X132852410Y-96868880D01*
X132852410Y-96868880D02*
X132804790Y-96821260D01*
X132804790Y-96821260D02*
X132757170Y-96726020D01*
X132757170Y-96726020D02*
X132757170Y-96630780D01*
X132757170Y-96630780D02*
X132804790Y-96535540D01*
X132804790Y-96535540D02*
X132852410Y-96487920D01*
X132852410Y-96487920D02*
X132947640Y-96440300D01*
X132947640Y-96440300D02*
X133185740Y-96440300D01*
X133185740Y-96440300D02*
X133328600Y-96487920D01*
X133661930Y-96440300D02*
X133900020Y-97440300D01*
X133900020Y-97440300D02*
X134090500Y-96726020D01*
X134090500Y-96726020D02*
X134280980Y-97440300D01*
X134280980Y-97440300D02*
X134519070Y-96440300D01*
X134852410Y-96535540D02*
X134900020Y-96487920D01*
X134900020Y-96487920D02*
X134995260Y-96440300D01*
X134995260Y-96440300D02*
X135233360Y-96440300D01*
X135233360Y-96440300D02*
X135328600Y-96487920D01*
X135328600Y-96487920D02*
X135376210Y-96535540D01*
X135376210Y-96535540D02*
X135423830Y-96630780D01*
X135423830Y-96630780D02*
X135423830Y-96726020D01*
X135423830Y-96726020D02*
X135376210Y-96868880D01*
X135376210Y-96868880D02*
X134804790Y-97440300D01*
X134804790Y-97440300D02*
X135423830Y-97440300D01*
X132796670Y-78353200D02*
X132939520Y-78400820D01*
X132939520Y-78400820D02*
X133177620Y-78400820D01*
X133177620Y-78400820D02*
X133272860Y-78353200D01*
X133272860Y-78353200D02*
X133320480Y-78305580D01*
X133320480Y-78305580D02*
X133368100Y-78210340D01*
X133368100Y-78210340D02*
X133368100Y-78115100D01*
X133368100Y-78115100D02*
X133320480Y-78019870D01*
X133320480Y-78019870D02*
X133272860Y-77972250D01*
X133272860Y-77972250D02*
X133177620Y-77924630D01*
X133177620Y-77924630D02*
X132987140Y-77877010D01*
X132987140Y-77877010D02*
X132891910Y-77829390D01*
X132891910Y-77829390D02*
X132844290Y-77781770D01*
X132844290Y-77781770D02*
X132796670Y-77686530D01*
X132796670Y-77686530D02*
X132796670Y-77591300D01*
X132796670Y-77591300D02*
X132844290Y-77496060D01*
X132844290Y-77496060D02*
X132891910Y-77448440D01*
X132891910Y-77448440D02*
X132987140Y-77400820D01*
X132987140Y-77400820D02*
X133225240Y-77400820D01*
X133225240Y-77400820D02*
X133368100Y-77448440D01*
X133701430Y-77400820D02*
X133939520Y-78400820D01*
X133939520Y-78400820D02*
X134130000Y-77686530D01*
X134130000Y-77686530D02*
X134320480Y-78400820D01*
X134320480Y-78400820D02*
X134558570Y-77400820D01*
X135463330Y-78400820D02*
X134891910Y-78400820D01*
X135177620Y-78400820D02*
X135177620Y-77400820D01*
X135177620Y-77400820D02*
X135082380Y-77543680D01*
X135082380Y-77543680D02*
X134987140Y-77638910D01*
X134987140Y-77638910D02*
X134891910Y-77686530D01*
X128966670Y-134807200D02*
X129109520Y-134854820D01*
X129109520Y-134854820D02*
X129347620Y-134854820D01*
X129347620Y-134854820D02*
X129442860Y-134807200D01*
X129442860Y-134807200D02*
X129490480Y-134759580D01*
X129490480Y-134759580D02*
X129538100Y-134664340D01*
X129538100Y-134664340D02*
X129538100Y-134569100D01*
X129538100Y-134569100D02*
X129490480Y-134473870D01*
X129490480Y-134473870D02*
X129442860Y-134426250D01*
X129442860Y-134426250D02*
X129347620Y-134378630D01*
X129347620Y-134378630D02*
X129157140Y-134331010D01*
X129157140Y-134331010D02*
X129061910Y-134283390D01*
X129061910Y-134283390D02*
X129014290Y-134235770D01*
X129014290Y-134235770D02*
X128966670Y-134140530D01*
X128966670Y-134140530D02*
X128966670Y-134045300D01*
X128966670Y-134045300D02*
X129014290Y-133950060D01*
X129014290Y-133950060D02*
X129061910Y-133902440D01*
X129061910Y-133902440D02*
X129157140Y-133854820D01*
X129157140Y-133854820D02*
X129395240Y-133854820D01*
X129395240Y-133854820D02*
X129538100Y-133902440D01*
X129871430Y-133854820D02*
X130109520Y-134854820D01*
X130109520Y-134854820D02*
X130300000Y-134140530D01*
X130300000Y-134140530D02*
X130490480Y-134854820D01*
X130490480Y-134854820D02*
X130728570Y-133854820D01*
X131538100Y-134188150D02*
X131538100Y-134854820D01*
X131300000Y-133807200D02*
X131061910Y-134521490D01*
X131061910Y-134521490D02*
X131680950Y-134521490D01*
D13*
X147560000Y-98060000D02*
X161530000Y-98060000D01*
X147560000Y-112030000D02*
X147560000Y-98060000D01*
X161530000Y-98060000D02*
X161530000Y-112030000D01*
X161530000Y-112030000D02*
X147560000Y-112030000D01*
X127105500Y-117015000D02*
X141075500Y-117015000D01*
X127105500Y-130985000D02*
X127105500Y-117015000D01*
X141075500Y-117015000D02*
X141075500Y-130985000D01*
X141075500Y-130985000D02*
X127105500Y-130985000D01*
X127105500Y-97874490D02*
X141075500Y-97874490D01*
X127105500Y-111844490D02*
X127105500Y-97874490D01*
X141075500Y-97874490D02*
X141075500Y-111844490D01*
X141075500Y-111844490D02*
X127105500Y-111844490D01*
X127145000Y-78835000D02*
X141115000Y-78835000D01*
X127145000Y-92805000D02*
X127145000Y-78835000D01*
X141115000Y-78835000D02*
X141115000Y-92805000D01*
X141115000Y-92805000D02*
X127145000Y-92805000D01*
X138000000Y-141600000D02*
G75*
G02*
X132000000Y-141600000I-3000000J0D01*
G01*
X132000000Y-141600000D02*
G75*
G02*
X138000000Y-141600000I3000000J0D01*
G01*
X141100000Y-147500000D02*
X137000000Y-147500000D01*
X141100000Y-145100000D02*
X141100000Y-147500000D01*
X141100000Y-140300000D02*
X141100000Y-142900000D01*
X141100000Y-135700000D02*
X141100000Y-138100000D01*
X137000000Y-135700000D02*
X141100000Y-135700000D01*
X135000000Y-141100000D02*
X135000000Y-142100000D01*
X134500000Y-141600000D02*
X135500000Y-141600000D01*
X133000000Y-147500000D02*
X128900000Y-147500000D01*
X133000000Y-135700000D02*
X128900000Y-135700000D01*
X128900000Y-135700000D02*
X128900000Y-147500000D01*
X127800000Y-137500000D02*
X127500000Y-137800000D01*
X127500000Y-137800000D02*
X127200000Y-137500000D01*
X127200000Y-137500000D02*
X127800000Y-137500000D01*
M02*
