M48
; DRILL file KiCad 10.0.3 date 2026-07-20T17:41:47
; FORMAT={-:-/ absolute / metric / decimal}
; #@! TF.CreationDate,2026-07-20T17:41:47-06:00
; #@! TF.GenerationSoftware,Kicad,Pcbnew,10.0.3
; #@! TF.FileFunction,Plated,1,2,PTH
FMAT,2
METRIC
; #@! TA.AperFunction,Plated,PTH,ViaDrill
T1C1.000
; #@! TA.AperFunction,Plated,PTH,ViaDrill
T2C1.500
; #@! TA.AperFunction,Plated,PTH,ComponentDrill
T3C1.500
; #@! TA.AperFunction,Plated,PTH,ViaDrill
T4C1.700
; #@! TA.AperFunction,Plated,PTH,ViaDrill
T5C4.000
%
G90
G05
T1
X126.75Y-79.3
X126.75Y-81.84
X126.75Y-84.38
X126.75Y-86.92
X126.75Y-89.46
X126.75Y-92.0
X126.75Y-94.54
X127.5Y-139.1
X127.5Y-141.6
X127.5Y-144.1
X142.0Y-79.3
X142.0Y-81.84
X142.0Y-84.38
X142.0Y-86.92
X142.0Y-89.46
X142.0Y-92.0
X142.0Y-94.54
X142.0Y-139.1
X142.0Y-144.1
T2
X130.28Y-102.319
X130.28Y-121.46
X130.32Y-83.28
X136.63Y-99.779
X136.63Y-118.92
X136.67Y-80.74
X150.735Y-102.505
X157.085Y-99.965
T4
X129.011Y-104.859
X129.011Y-124.0
X129.05Y-85.82
X139.171Y-104.859
X139.171Y-124.0
X139.21Y-85.82
X149.465Y-105.045
X159.625Y-105.045
T5
X134.09Y-104.859
X134.09Y-124.0
X134.13Y-85.82
X154.545Y-105.045
T3
G00X134.35Y-136.0
M15
G01X135.65Y-136.0
M16
G05
G00X134.35Y-147.2
M15
G01X135.65Y-147.2
M16
G05
M30
